<svg version="1.1" id="Layer_1" xmlns="http://www.w3.org/2000/svg" xmlns:xlink="http://www.w3.org/1999/xlink" x="0px" y="0px"
	 width="100%" viewBox="0 0 1247 1627" enable-background="new 0 0 1247 1627" xml:space="preserve">
<path fill="#000000" opacity="1.000000" stroke="none" 
	d="
M1248.000000,584.000000 
	C1248.000000,932.303162 1248.000000,1280.106323 1248.000000,1627.954712 
	C832.399658,1627.954712 416.799286,1627.954712 1.099458,1627.954712 
	C1.099458,1085.780029 1.099458,543.560120 1.099458,1.170106 
	C416.666595,1.170106 832.333313,1.170106 1248.000000,1.170106 
	C1248.000000,195.200974 1248.000000,389.350494 1248.000000,584.000000 
M1009.000000,225.500046 
	C987.518066,204.291840 966.017700,183.102295 944.561035,161.868515 
	C931.593079,149.035248 918.680908,136.145523 905.765686,123.259033 
	C892.552307,110.074951 879.344116,96.885445 866.177490,83.654716 
	C860.353943,77.802803 853.940613,74.805573 845.137756,74.815002 
	C625.144592,75.050682 405.151123,75.002243 185.157700,74.993446 
	C174.386383,74.993019 163.942169,76.924377 153.655075,79.977531 
	C137.304825,84.830238 122.528526,92.783554 110.268982,104.503342 
	C99.349937,114.941628 90.472565,127.137802 84.295921,141.179260 
	C78.807220,153.656784 75.161148,166.640289 74.169792,180.123581 
	C73.307930,191.845566 73.857216,203.674347 73.857811,215.455933 
	C73.858582,230.824387 74.005524,246.193069 73.954102,261.561218 
	C73.909920,274.762543 73.581200,287.963074 73.557861,301.164276 
	C73.542000,310.130981 73.928772,319.097778 73.971642,328.065308 
	C74.047150,343.862061 74.034271,359.659515 73.990921,375.456482 
	C73.933998,396.200317 73.757614,416.943909 73.736900,437.687714 
	C73.723373,451.229095 73.924301,464.770599 73.974693,478.312256 
	C74.017143,489.719971 74.003700,501.128021 73.971344,512.535828 
	C73.951393,519.570435 73.893600,526.605530 73.772560,533.639099 
	C73.641930,541.229675 73.246933,548.819275 73.280739,556.408020 
	C73.317116,564.577637 73.912613,572.745789 73.901344,580.914185 
	C73.890938,588.456543 73.190254,595.997559 73.167587,603.540283 
	C73.129059,616.366089 73.443871,629.192505 73.497864,642.019104 
	C73.545593,653.359558 73.354904,664.701233 73.429298,676.041321 
	C73.489143,685.164856 74.001480,694.288757 73.921143,703.408997 
	C73.839142,712.718994 72.989723,722.025024 72.996674,731.332336 
	C73.006935,745.066589 73.685432,758.800354 73.699516,772.534668 
	C73.716896,789.470520 73.179779,806.406860 73.194801,823.342773 
	C73.206001,835.963989 73.958900,848.584656 73.962997,861.205688 
	C74.018234,1031.533936 73.959381,1201.862061 74.044609,1372.190308 
	C74.057167,1397.286499 74.032875,1422.414917 75.315659,1447.462280 
	C75.819473,1457.299927 78.630592,1467.485352 82.533562,1476.594238 
	C93.603920,1502.430664 112.516556,1521.123901 138.245712,1532.601440 
	C151.127426,1538.347900 164.538849,1542.036133 178.864288,1542.033936 
	C477.855316,1541.988770 776.846375,1542.005981 1075.837402,1541.958618 
	C1081.931885,1541.957642 1088.049805,1541.570801 1094.116455,1540.962158 
	C1110.721313,1539.296387 1125.533447,1532.246460 1138.982666,1523.200073 
	C1152.575073,1514.057373 1163.470093,1501.953979 1171.609131,1487.232544 
	C1180.588989,1470.990723 1185.922852,1453.965698 1185.929688,1435.554810 
	C1186.032104,1159.200806 1186.001953,882.846741 1186.002686,606.492676 
	C1186.002808,574.424988 1185.998535,542.357300 1186.000610,510.289642 
	C1186.002563,478.458588 1186.001953,446.627563 1186.020508,414.796509 
	C1186.025269,406.679047 1184.088379,399.761871 1177.613525,393.852600 
	C1166.772339,383.958405 1156.710571,373.210205 1146.321289,362.820892 
	C1100.714111,317.214020 1055.107056,271.607056 1009.000000,225.500046 
z"/>
<path fill="#736AEB" opacity="1.000000" stroke="none" 
	d="
M1009.250000,225.750061 
	C1055.107056,271.607056 1100.714111,317.214020 1146.321289,362.820892 
	C1156.710571,373.210205 1166.772339,383.958405 1177.613525,393.852600 
	C1184.088379,399.761871 1186.025269,406.679047 1186.020508,414.796509 
	C1186.001953,446.627563 1186.002563,478.458588 1186.000610,510.289642 
	C1185.998535,542.357300 1186.002808,574.424988 1186.002686,606.492676 
	C1186.001953,882.846741 1186.032104,1159.200806 1185.929688,1435.554810 
	C1185.922852,1453.965698 1180.588989,1470.990723 1171.609131,1487.232544 
	C1163.470093,1501.953979 1152.575073,1514.057373 1138.982666,1523.200073 
	C1125.533447,1532.246460 1110.721313,1539.296387 1094.116455,1540.962158 
	C1088.049805,1541.570801 1081.931885,1541.957642 1075.837402,1541.958618 
	C776.846375,1542.005981 477.855316,1541.988770 178.864288,1542.033936 
	C164.538849,1542.036133 151.127426,1538.347900 138.245712,1532.601440 
	C112.516556,1521.123901 93.603920,1502.430664 82.533562,1476.594238 
	C78.630592,1467.485352 75.819473,1457.299927 75.315659,1447.462280 
	C74.032875,1422.414917 74.057167,1397.286499 74.044609,1372.190308 
	C73.959381,1201.862061 74.018234,1031.533936 73.962997,861.205688 
	C73.958900,848.584656 73.206001,835.963989 73.194801,823.342773 
	C73.179779,806.406860 73.716896,789.470520 73.699516,772.534668 
	C73.685432,758.800354 73.006935,745.066589 72.996674,731.332336 
	C72.989723,722.025024 73.839142,712.718994 73.921143,703.408997 
	C74.001480,694.288757 73.489143,685.164856 73.429298,676.041321 
	C73.354904,664.701233 73.545593,653.359558 73.497864,642.019104 
	C73.443871,629.192505 73.129059,616.366089 73.167587,603.540283 
	C73.190254,595.997559 73.890938,588.456543 73.901344,580.914185 
	C73.912613,572.745789 73.317116,564.577637 73.280739,556.408020 
	C73.246933,548.819275 73.641930,541.229675 73.772560,533.639099 
	C73.893600,526.605530 73.951393,519.570435 73.971344,512.535828 
	C74.003700,501.128021 74.017143,489.719971 73.974693,478.312256 
	C73.924301,464.770599 73.723373,451.229095 73.736900,437.687714 
	C73.757614,416.943909 73.933998,396.200317 73.990921,375.456482 
	C74.034271,359.659515 74.047150,343.862061 73.971642,328.065308 
	C73.928772,319.097778 73.542000,310.130981 73.557861,301.164276 
	C73.581200,287.963074 73.909920,274.762543 73.954102,261.561218 
	C74.005524,246.193069 73.858582,230.824387 73.857811,215.455933 
	C73.857216,203.674347 73.307930,191.845566 74.169792,180.123581 
	C75.161148,166.640289 78.807220,153.656784 84.295921,141.179260 
	C90.472565,127.137802 99.349937,114.941628 110.268982,104.503342 
	C122.528526,92.783554 137.304825,84.830238 153.655075,79.977531 
	C163.942169,76.924377 174.386383,74.993019 185.157700,74.993446 
	C405.151123,75.002243 625.144592,75.050682 845.137756,74.815002 
	C853.940613,74.805573 860.353943,77.802803 866.177490,83.654716 
	C879.344116,96.885445 892.552307,110.074951 905.765686,123.259033 
	C918.680908,136.145523 931.593079,149.035248 944.561035,161.868515 
	C966.017700,183.102295 987.518066,204.291840 1009.250000,225.750061 
M179.717255,1472.000000 
	C478.878448,1472.000000 778.039612,1471.987427 1077.200806,1472.028931 
	C1096.519165,1472.031616 1112.701904,1459.759399 1114.902222,1439.994385 
	C1115.746338,1432.410767 1115.002197,1424.651855 1115.001831,1416.972778 
	C1114.998535,1354.977539 1115.000000,1292.982178 1115.000000,1230.986938 
	C1115.000000,972.825806 1115.000000,714.664673 1115.000000,456.503540 
	C1115.000000,454.722321 1115.000000,452.941101 1115.000000,450.389008 
	C1101.016968,450.389008 1087.630859,450.314972 1074.245728,450.406372 
	C1054.198608,450.543243 1034.152832,450.885468 1014.105713,450.977478 
	C989.136841,451.092102 964.163635,451.304993 939.199097,450.970856 
	C921.836548,450.738495 904.167419,451.477692 887.205505,448.516388 
	C863.220642,444.328979 842.254639,433.041901 825.605591,414.289032 
	C807.827515,394.264465 799.373901,370.887085 799.105957,344.576813 
	C798.700317,304.745605 798.929199,264.907043 799.044189,225.072052 
	C799.077698,213.461731 799.792175,201.854340 799.900757,190.242859 
	C799.958008,184.123917 799.228699,178.001572 799.128662,171.876282 
	C798.985168,163.087509 799.092102,154.294678 799.092102,144.999939 
	C796.608887,144.999939 794.654114,144.999954 792.699280,144.999954 
	C774.297302,144.999954 755.895325,144.999954 737.493347,144.999954 
	C556.666321,144.999954 375.839294,145.000519 195.012268,144.992035 
	C193.185776,144.991943 191.352936,144.743484 189.533966,144.832901 
	C184.234390,145.093414 178.798218,144.808029 173.669754,145.914597 
	C155.526718,149.829330 144.008163,167.688828 144.007721,186.061920 
	C143.997620,602.389587 144.052658,1018.717285 143.810333,1435.044800 
	C143.800476,1451.981445 160.906815,1471.775757 179.717255,1472.000000 
M1059.243896,380.000031 
	C1061.318481,380.000031 1063.393066,380.000031 1065.467651,380.000031 
	C1064.864014,380.384003 1064.260376,380.767975 1063.656738,381.151978 
	C999.078369,315.475098 934.500000,249.798248 869.416748,183.607941 
	C869.159973,185.153778 869.017212,185.612244 869.017090,186.070724 
	C869.004700,238.882584 868.843018,291.695404 869.163635,344.505310 
	C869.214844,352.930206 872.256104,360.890106 878.048340,367.658813 
	C887.239441,378.399170 899.670776,380.564117 912.538147,380.849823 
	C925.628906,381.140472 938.743286,380.094025 951.848877,380.045258 
	C987.333984,379.913269 1022.819824,380.000031 1059.243896,380.000031 
z"/>
<path fill="#000000" opacity="1.000000" stroke="none" 
	d="
M179.245911,1472.000000 
	C160.906815,1471.775757 143.800476,1451.981445 143.810333,1435.044800 
	C144.052658,1018.717285 143.997620,602.389587 144.007721,186.061920 
	C144.008163,167.688828 155.526718,149.829330 173.669754,145.914597 
	C178.798218,144.808029 184.234390,145.093414 189.533966,144.832901 
	C191.352936,144.743484 193.185776,144.991943 195.012268,144.992035 
	C375.839294,145.000519 556.666321,144.999954 737.493347,144.999954 
	C755.895325,144.999954 774.297302,144.999954 792.699280,144.999954 
	C794.654114,144.999954 796.608887,144.999939 799.092102,144.999939 
	C799.092102,154.294678 798.985168,163.087509 799.128662,171.876282 
	C799.228699,178.001572 799.958008,184.123917 799.900757,190.242859 
	C799.792175,201.854340 799.077698,213.461731 799.044189,225.072052 
	C798.929199,264.907043 798.700317,304.745605 799.105957,344.576813 
	C799.373901,370.887085 807.827515,394.264465 825.605591,414.289032 
	C842.254639,433.041901 863.220642,444.328979 887.205505,448.516388 
	C904.167419,451.477692 921.836548,450.738495 939.199097,450.970856 
	C964.163635,451.304993 989.136841,451.092102 1014.105713,450.977478 
	C1034.152832,450.885468 1054.198608,450.543243 1074.245728,450.406372 
	C1087.630859,450.314972 1101.016968,450.389008 1115.000000,450.389008 
	C1115.000000,452.941101 1115.000000,454.722321 1115.000000,456.503540 
	C1115.000000,714.664673 1115.000000,972.825806 1115.000000,1230.986938 
	C1115.000000,1292.982178 1114.998535,1354.977539 1115.001831,1416.972778 
	C1115.002197,1424.651855 1115.746338,1432.410767 1114.902222,1439.994385 
	C1112.701904,1459.759399 1096.519165,1472.031616 1077.200806,1472.028931 
	C778.039612,1471.987427 478.878448,1472.000000 179.245911,1472.000000 
M658.465332,650.019775 
	C652.400085,654.664307 646.198608,659.142944 640.298340,663.988403 
	C628.416565,673.746033 616.118042,683.099304 605.058289,693.729370 
	C590.864258,707.371887 577.288025,721.725342 564.258057,736.489502 
	C553.478821,748.703369 543.261108,761.522583 533.879150,774.837646 
	C511.206604,807.015015 490.839905,840.690430 476.186737,877.299438 
	C465.845154,903.136658 457.589447,929.809448 448.453094,956.126831 
	C447.924927,957.648315 447.991638,959.369385 447.529541,960.922668 
	C447.076904,962.444031 446.302094,963.869507 445.557098,965.595703 
	C444.982971,964.739258 444.611450,964.367493 444.451263,963.919983 
	C436.130066,940.675720 430.300537,916.781738 425.995087,892.503357 
	C422.926086,875.197510 419.233917,857.952576 417.249451,840.517761 
	C415.247833,822.931763 414.675049,805.155518 414.125122,787.442383 
	C413.792877,776.740601 413.114960,766.381958 409.096924,756.207214 
	C401.698181,737.471558 387.749756,726.346985 369.011353,721.239014 
	C362.199707,719.382141 354.620361,720.005249 347.396210,720.067444 
	C332.104767,720.199036 319.776459,727.488281 309.681458,738.087708 
	C298.828217,749.483215 294.946228,764.172852 295.171875,779.488403 
	C295.441284,797.777039 296.759003,816.063843 298.075775,834.318787 
	C298.982086,846.883057 300.345673,859.434998 302.067657,871.914795 
	C304.426758,889.012024 306.723022,906.156372 310.144318,923.058228 
	C313.869720,941.462646 318.260803,959.782898 323.457275,977.824280 
	C328.325470,994.725769 333.550629,1011.682556 340.551331,1027.774170 
	C350.821442,1051.380737 362.004272,1074.676880 374.275024,1097.304443 
	C389.639648,1125.637085 408.265717,1151.744507 433.217712,1172.793579 
	C442.496552,1180.620972 452.186676,1187.559692 464.144623,1190.578613 
	C473.766571,1193.007812 483.474762,1194.160156 493.357635,1192.002808 
	C516.164551,1187.024292 530.725586,1172.437622 538.104858,1151.177368 
	C542.214539,1139.336914 544.301636,1126.615112 545.855713,1114.110962 
	C547.962769,1097.157104 548.659180,1080.029175 550.020752,1062.980713 
	C550.332886,1059.071899 550.746338,1055.160034 551.360962,1051.288940 
	C553.173889,1039.870728 554.966431,1028.445923 557.040771,1017.073547 
	C559.073669,1005.928528 560.704285,994.632507 563.823669,983.779907 
	C569.711548,963.294983 576.482483,943.061768 583.036255,922.772278 
	C584.148865,919.327820 586.010010,916.125122 587.525391,912.810730 
	C588.016907,912.980469 588.508484,913.150208 589.000000,913.319946 
	C589.000000,915.092957 588.965454,916.866821 589.005493,918.638916 
	C589.327637,932.902527 589.463379,947.174072 590.049988,961.426941 
	C590.686829,976.899841 593.157349,992.076782 596.786316,1007.199524 
	C602.180054,1029.675903 609.386475,1051.502075 619.720520,1072.059570 
	C627.932129,1088.394897 637.425659,1104.170654 647.413208,1119.502197 
	C655.744995,1132.292236 664.885498,1144.726929 674.992554,1156.146606 
	C688.306885,1171.190186 702.810486,1185.193359 717.025391,1199.421387 
	C722.368103,1204.769165 728.106750,1209.784912 734.063477,1214.442383 
	C746.114990,1223.864990 758.086609,1233.457886 770.727356,1242.043945 
	C793.529480,1257.532349 816.602844,1272.645508 839.956421,1287.287598 
	C851.603027,1294.589600 864.317261,1300.167725 876.186951,1307.141113 
	C888.105408,1314.142944 900.553589,1317.683838 914.458984,1317.093872 
	C935.645081,1316.195312 950.131165,1304.999878 960.535278,1287.750244 
	C967.098022,1276.869507 966.887756,1264.365967 965.765076,1252.291016 
	C964.781128,1241.708740 960.121948,1231.724976 952.066345,1224.971436 
	C943.305115,1217.626221 933.014099,1212.045532 923.153564,1206.086914 
	C910.825684,1198.637573 897.865601,1192.176025 885.886292,1184.221924 
	C869.251465,1173.176514 852.877197,1161.650635 837.127258,1149.385498 
	C821.354492,1137.102539 805.974548,1124.204590 791.387634,1110.545410 
	C780.219849,1100.088013 769.844177,1088.581421 760.414124,1076.526245 
	C750.256958,1063.541504 740.788879,1049.852295 732.507874,1035.605713 
	C721.196655,1016.146179 714.423462,994.813843 709.846191,972.713379 
	C706.463135,956.378784 702.652283,940.189697 705.020447,923.363647 
	C707.098755,908.597107 708.621826,893.700623 711.699036,879.138123 
	C716.813599,854.934021 726.379456,832.158325 737.579041,810.230774 
	C744.788208,796.116150 753.659119,782.839539 761.973328,769.302856 
	C772.944519,751.440186 785.639099,734.859192 799.976746,719.564453 
	C804.458313,714.783691 809.247986,710.292358 813.877502,705.649414 
	C821.489441,698.015381 829.076965,690.357056 836.691895,682.725952 
	C841.204285,678.204041 846.226501,674.094666 850.178955,669.130615 
	C858.098267,659.184387 863.999390,648.065796 863.921692,634.950562 
	C863.804871,615.208496 855.799988,598.890808 839.710266,587.541443 
	C827.391846,578.852234 813.261292,574.596558 797.965820,578.037476 
	C789.800049,579.874451 781.596680,582.055664 773.865967,585.201294 
	C760.654297,590.576904 747.536011,596.319458 734.867310,602.855408 
	C720.579346,610.226807 706.619812,618.300171 692.913757,626.713806 
	C681.312988,633.835144 670.277405,641.877197 658.465332,650.019775 
z"/>
<path fill="#000000" opacity="1.000000" stroke="none" 
	d="
M1058.774658,380.000031 
	C1022.819824,380.000031 987.333984,379.913269 951.848877,380.045258 
	C938.743286,380.094025 925.628906,381.140472 912.538147,380.849823 
	C899.670776,380.564117 887.239441,378.399170 878.048340,367.658813 
	C872.256104,360.890106 869.214844,352.930206 869.163635,344.505310 
	C868.843018,291.695404 869.004700,238.882584 869.017090,186.070724 
	C869.017212,185.612244 869.159973,185.153778 869.416748,183.607941 
	C934.500000,249.798248 999.078369,315.475098 1063.656738,381.151978 
	C1064.260376,380.767975 1064.864014,380.384003 1065.467651,380.000031 
	C1063.393066,380.000031 1061.318481,380.000031 1058.774658,380.000031 
z"/>
<path fill="#766DEE" opacity="1.000000" stroke="none" 
	d="
M658.728516,649.765747 
	C670.277405,641.877197 681.312988,633.835144 692.913757,626.713806 
	C706.619812,618.300171 720.579346,610.226807 734.867310,602.855408 
	C747.536011,596.319458 760.654297,590.576904 773.865967,585.201294 
	C781.596680,582.055664 789.800049,579.874451 797.965820,578.037476 
	C813.261292,574.596558 827.391846,578.852234 839.710266,587.541443 
	C855.799988,598.890808 863.804871,615.208496 863.921692,634.950562 
	C863.999390,648.065796 858.098267,659.184387 850.178955,669.130615 
	C846.226501,674.094666 841.204285,678.204041 836.691895,682.725952 
	C829.076965,690.357056 821.489441,698.015381 813.877502,705.649414 
	C809.247986,710.292358 804.458313,714.783691 799.976746,719.564453 
	C785.639099,734.859192 772.944519,751.440186 761.973328,769.302856 
	C753.659119,782.839539 744.788208,796.116150 737.579041,810.230774 
	C726.379456,832.158325 716.813599,854.934021 711.699036,879.138123 
	C708.621826,893.700623 707.098755,908.597107 705.020447,923.363647 
	C702.652283,940.189697 706.463135,956.378784 709.846191,972.713379 
	C714.423462,994.813843 721.196655,1016.146179 732.507874,1035.605713 
	C740.788879,1049.852295 750.256958,1063.541504 760.414124,1076.526245 
	C769.844177,1088.581421 780.219849,1100.088013 791.387634,1110.545410 
	C805.974548,1124.204590 821.354492,1137.102539 837.127258,1149.385498 
	C852.877197,1161.650635 869.251465,1173.176514 885.886292,1184.221924 
	C897.865601,1192.176025 910.825684,1198.637573 923.153564,1206.086914 
	C933.014099,1212.045532 943.305115,1217.626221 952.066345,1224.971436 
	C960.121948,1231.724976 964.781128,1241.708740 965.765076,1252.291016 
	C966.887756,1264.365967 967.098022,1276.869507 960.535278,1287.750244 
	C950.131165,1304.999878 935.645081,1316.195312 914.458984,1317.093872 
	C900.553589,1317.683838 888.105408,1314.142944 876.186951,1307.141113 
	C864.317261,1300.167725 851.603027,1294.589600 839.956421,1287.287598 
	C816.602844,1272.645508 793.529480,1257.532349 770.727356,1242.043945 
	C758.086609,1233.457886 746.114990,1223.864990 734.063477,1214.442383 
	C728.106750,1209.784912 722.368103,1204.769165 717.025391,1199.421387 
	C702.810486,1185.193359 688.306885,1171.190186 674.992554,1156.146606 
	C664.885498,1144.726929 655.744995,1132.292236 647.413208,1119.502197 
	C637.425659,1104.170654 627.932129,1088.394897 619.720520,1072.059570 
	C609.386475,1051.502075 602.180054,1029.675903 596.786316,1007.199524 
	C593.157349,992.076782 590.686829,976.899841 590.049988,961.426941 
	C589.463379,947.174072 589.327637,932.902527 589.005493,918.638916 
	C588.965454,916.866821 589.000000,915.092957 589.000000,913.319946 
	C588.508484,913.150208 588.016907,912.980469 587.525391,912.810730 
	C586.010010,916.125122 584.148865,919.327820 583.036255,922.772278 
	C576.482483,943.061768 569.711548,963.294983 563.823669,983.779907 
	C560.704285,994.632507 559.073669,1005.928528 557.040771,1017.073547 
	C554.966431,1028.445923 553.173889,1039.870728 551.360962,1051.288940 
	C550.746338,1055.160034 550.332886,1059.071899 550.020752,1062.980713 
	C548.659180,1080.029175 547.962769,1097.157104 545.855713,1114.110962 
	C544.301636,1126.615112 542.214539,1139.336914 538.104858,1151.177368 
	C530.725586,1172.437622 516.164551,1187.024292 493.357635,1192.002808 
	C483.474762,1194.160156 473.766571,1193.007812 464.144623,1190.578613 
	C452.186676,1187.559692 442.496552,1180.620972 433.217712,1172.793579 
	C408.265717,1151.744507 389.639648,1125.637085 374.275024,1097.304443 
	C362.004272,1074.676880 350.821442,1051.380737 340.551331,1027.774170 
	C333.550629,1011.682556 328.325470,994.725769 323.457275,977.824280 
	C318.260803,959.782898 313.869720,941.462646 310.144318,923.058228 
	C306.723022,906.156372 304.426758,889.012024 302.067657,871.914795 
	C300.345673,859.434998 298.982086,846.883057 298.075775,834.318787 
	C296.759003,816.063843 295.441284,797.777039 295.171875,779.488403 
	C294.946228,764.172852 298.828217,749.483215 309.681458,738.087708 
	C319.776459,727.488281 332.104767,720.199036 347.396210,720.067444 
	C354.620361,720.005249 362.199707,719.382141 369.011353,721.239014 
	C387.749756,726.346985 401.698181,737.471558 409.096924,756.207214 
	C413.114960,766.381958 413.792877,776.740601 414.125122,787.442383 
	C414.675049,805.155518 415.247833,822.931763 417.249451,840.517761 
	C419.233917,857.952576 422.926086,875.197510 425.995087,892.503357 
	C430.300537,916.781738 436.130066,940.675720 444.451263,963.919983 
	C444.611450,964.367493 444.982971,964.739258 445.557098,965.595703 
	C446.302094,963.869507 447.076904,962.444031 447.529541,960.922668 
	C447.991638,959.369385 447.924927,957.648315 448.453094,956.126831 
	C457.589447,929.809448 465.845154,903.136658 476.186737,877.299438 
	C490.839905,840.690430 511.206604,807.015015 533.879150,774.837646 
	C543.261108,761.522583 553.478821,748.703369 564.258057,736.489502 
	C577.288025,721.725342 590.864258,707.371887 605.058289,693.729370 
	C616.118042,683.099304 628.416565,673.746033 640.298340,663.988403 
	C646.198608,659.142944 652.400085,654.664307 658.728516,649.765747 
z"/>
</svg>