<?xml version="1.0" standalone="no"?>
<!DOCTYPE svg PUBLIC "-//W3C//DTD SVG 20010904//EN"
 "http://www.w3.org/TR/2001/REC-SVG-20010904/DTD/svg10.dtd">
<svg version="1.0" xmlns="http://www.w3.org/2000/svg"
 width="1330.000000pt" height="1633.000000pt" viewBox="0 0 1330.000000 1633.000000"
 preserveAspectRatio="xMidYMid meet">

<g transform="translate(0.000000,1633.000000) scale(0.100000,-0.100000)"
fill="#543DE7" stroke="none">
<path d="M2065 15473 c-47 -6 -185 -42 -240 -62 -230 -86 -444 -258 -547 -441
-102 -180 -159 -338 -172 -480 -11 -115 -17 -12562 -6 -12677 19 -204 77 -371
182 -526 52 -77 196 -217 279 -273 94 -62 239 -128 344 -155 l90 -24 4660 0
4660 0 95 28 c103 31 233 89 320 145 76 48 223 194 275 272 84 128 153 290
176 415 8 43 13 1495 15 5240 2 2849 2 5205 -1 5235 l-6 55 -1408 1405 c-1755
1751 -1819 1814 -1858 1834 -29 15 -314 16 -3430 15 -1869 -1 -3411 -4 -3428
-6z m6282 -685 c4 -7 8 -492 9 -1078 1 -1135 0 -1123 51 -1264 136 -381 469
-642 888 -694 50 -7 470 -10 1130 -8 578 1 1058 -2 1068 -6 16 -8 17 -249 15
-4976 l-3 -4967 -27 -57 c-31 -67 -95 -140 -153 -173 -99 -59 241 -55 -4680
-55 -4032 0 -4517 2 -4570 15 -133 35 -241 141 -279 275 -15 51 -16 627 -14
6370 l3 6315 31 67 c51 107 128 181 233 224 l56 24 3117 0 c2483 0 3118 -3
3125 -12z m1681 -1360 c544 -543 987 -990 984 -993 -3 -3 -378 -5 -833 -5
l-828 0 -71 26 c-120 45 -214 153 -236 272 -3 17 -9 32 -13 32 -3 0 -5 374 -3
832 1 457 4 829 6 827 3 -2 450 -448 994 -991z"/>
<path d="M8269 10446 c-64 -17 -194 -67 -259 -100 -25 -13 -56 -27 -69 -31
-34 -11 -251 -116 -346 -168 -168 -92 -193 -106 -295 -169 -215 -132 -509
-347 -720 -527 -223 -190 -558 -530 -686 -696 -290 -377 -489 -692 -684 -1084
-120 -242 -291 -707 -373 -1015 -13 -50 -28 -91 -33 -93 -12 -4 -128 390 -160
542 -56 271 -67 327 -90 475 -31 197 -41 279 -49 410 -4 58 -8 107 -10 110 -2
3 -6 100 -10 215 -3 116 -11 228 -16 250 -43 171 -108 272 -229 359 -100 71
-198 107 -315 113 -280 15 -509 -139 -590 -397 -31 -97 -31 -517 0 -765 2 -16
6 -64 10 -105 12 -148 76 -561 119 -776 149 -737 406 -1392 753 -1922 155
-238 256 -360 418 -510 193 -178 335 -243 532 -243 153 0 255 36 364 127 95
79 175 206 214 338 32 115 60 327 90 706 8 107 18 213 21 235 13 95 36 237 54
325 10 52 26 136 35 185 37 207 123 499 232 790 24 66 47 127 49 135 5 13 7
12 15 -3 10 -18 12 -172 3 -307 -6 -105 29 -449 62 -610 67 -316 213 -691 384
-980 71 -121 258 -391 336 -487 357 -435 850 -856 1429 -1220 573 -360 804
-473 980 -479 101 -3 230 29 311 77 112 68 213 202 243 324 17 65 21 198 10
261 -12 64 -70 182 -111 226 -63 66 -204 160 -343 228 -95 47 -288 164 -432
263 -309 211 -476 337 -603 453 -25 23 -74 66 -110 95 -100 82 -346 333 -431
439 -67 83 -107 140 -220 305 -162 238 -299 622 -349 973 -10 74 -14 305 -6
352 2 14 7 57 11 95 23 241 137 607 286 910 198 406 463 787 739 1065 41 42
87 89 101 105 28 32 200 192 258 241 48 40 143 189 166 260 27 84 26 247 -2
326 -62 176 -184 297 -363 360 -73 26 -244 33 -321 14z"/>
</g>
</svg>
